<svg version="1.2" xmlns="http://www.w3.org/2000/svg" viewBox="0 0 336 384" width="336" height="384">
	<style>
		.s0 { opacity: 1;fill: #eb448e } 
		.s1 { opacity: .97;fill: #f9c3db } 
	</style>
	<g id="Background">
		<path id="Path 0" class="s0" d="m50.79 38.18c1.21 0.48 0.84 0.71-1.29 0.78-1.65 0.05-4.9 1.23-7.22 2.61-2.32 1.38-5.81 4.74-7.75 7.47-1.94 2.73-3.53 5.41-3.53 5.96 0 0.55-0.45 1-1 1-0.55 0-0.77 0.67-0.5 1.5 0.27 0.83 0.05 1.61-0.5 1.75-0.65 0.16-0.98 47.1-0.97 137.25 0.03 128.4 0.14 137.08 1.75 138.22 1.4 0.99 1.44 1.23 0.22 1.26-1.33 0.05-1.33 0.15 0 0.98 0.82 0.51 1.16 1.18 0.75 1.48-0.41 0.31-0.07 1.24 0.75 2.06 0.83 0.83 1.17 2.05 0.75 2.74q-0.74 1.23 0.5 0.5c0.79-0.47 2.1 0.46 3.57 2.51 1.27 1.79 4.42 4.26 7 5.5 3 1.44 5.49 2.01 6.93 1.58 1.24-0.37 8.1-6.13 15.25-12.8 7.15-6.68 24.44-22.46 38.43-35.08 13.99-12.62 35.14-31.68 47-42.36 11.86-10.68 35.07-31.57 51.57-46.43 16.5-14.87 32.14-29.19 34.75-31.84 2.61-2.65 6.89-8.08 9.5-12.07 2.61-3.99 5.65-8.91 6.75-10.94 1.1-2.03 2.23-3.53 2.5-3.34 0.27 0.18 0.39-1.19 0.25-3.07-0.17-2.3 0.24-3.56 1.25-3.9 0.82-0.28 1.27-0.95 1-1.5-0.27-0.55-0.05-1 0.5-1 0.55 0 0.9-0.56 0.78-1.25-0.13-0.69 0.1-3.16 0.5-5.5 0.39-2.34 1.06-4.07 1.47-3.84 0.41 0.22 0.47-6.19 0.13-14.25-0.35-8.06-1.13-16.35-1.75-18.41-0.62-2.06-0.8-4.31-0.39-5 0.44-0.74 0.34-0.96-0.25-0.55-0.57 0.4-1.75-1.51-2.78-4.5-0.98-2.86-3.64-8.35-5.89-12.2-2.26-3.85-5.72-9.03-7.7-11.5-1.97-2.47-6.32-7.2-9.66-10.5-3.34-3.3-9.65-8.02-14.02-10.5-4.37-2.47-11.54-5.94-15.94-7.7-4.69-1.87-11.72-3.69-17-4.4-6.18-0.83-29.14-1.24-73.21-1.31-35.32-0.05-63.44 0.22-62.5 0.59z"/>
		<path id="Path 1" class="s1" d="m51.5 37.57l-5 1.34c9.3-0.94 38.33-1.23 70.5-1.24 32.18-0.02 61.88 0.27 66 0.63l7.5 0.66c-15.26-2.58-29-2.86-75.5-2.8-45.47 0.06-59.61 0.38-63.5 1.41zm-12.6 5.25c-2.42 2.1-5.4 5.36-6.62 7.25-1.22 1.89-2.2 4.1-2.18 4.93 0.03 1.24 0.16 1.22 0.72-0.11 0.37-0.88 2.26-3.64 4.18-6.14 1.92-2.49 5.3-5.7 7.5-7.12 2.2-1.43 3.28-2.61 2.4-2.61-0.88-0.01-3.58 1.7-6 3.8zm157.1-2.28c3.03 0.86 9.32 3.38 14 5.58 4.68 2.21 11.43 5.97 15 8.36 3.57 2.39 9.05 7.2 12.16 10.68 3.12 3.49 6.53 7.46 7.59 8.84 1.06 1.38 3.78 5.65 6.05 9.5 2.27 3.85 5.58 11.28 7.35 16.5 2.83 8.32 3.28 11.11 3.63 22.5 0.3 9.58 0 14.58-1.14 19-0.85 3.3-1.34 6.11-1.09 6.25 0.25 0.14 0.91-1.21 1.47-3 0.56-1.79 1.46-6.96 2-11.5 0.64-5.37 0.64-11.13 0.01-16.5-0.54-4.54-2.36-12.53-4.05-17.75-1.68-5.22-4.96-12.84-7.27-16.93-2.41-4.25-7.85-11.27-12.71-16.39-4.68-4.93-11.65-11.07-15.5-13.65-3.85-2.58-11.05-6.41-16-8.51-4.95-2.1-10.8-3.98-13-4.19-3.64-0.33-3.5-0.22 1.5 1.21zm61 110.46c-0.09 0.28-0.39 1.85-0.67 3.5-0.28 1.65-1.48 4.8-2.68 7-1.2 2.2-4.31 7.26-6.91 11.25-2.61 3.99-6.88 9.42-9.49 12.07-2.61 2.65-18.25 16.97-34.75 31.84-16.5 14.86-39.71 35.75-51.57 46.43-11.86 10.68-33.01 29.74-47 42.36-13.99 12.62-31.28 28.4-38.43 35.08-7.15 6.67-14.01 12.43-15.25 12.8-1.44 0.43-3.92-0.14-6.92-1.58-2.86-1.38-6.16-4.18-8.53-7.25-2.13-2.75-3.86-4.44-3.84-3.75 0.02 0.69 2.21 3.61 4.87 6.5 2.65 2.89 6.59 5.96 8.75 6.84 2.15 0.87 7.75 1.77 12.42 2 4.68 0.22 44.73 0.41 89 0.41h80.5c17.05-4.48 24.48-7.14 27.5-8.82 3.02-1.67 7.98-4.73 11-6.8 3.02-2.06 8.08-6.37 11.23-9.57 3.16-3.19 7.3-8.06 9.22-10.81 1.91-2.75 5.21-8.37 7.33-12.5 2.13-4.12 4.61-9.75 5.53-12.5 0.92-2.75 2.4-9.73 3.28-15.5 1.12-7.41 1.4-13.44 0.95-20.5-0.36-5.5-1.48-13.82-2.5-18.5-1.02-4.68-3.38-11.87-5.26-16-1.87-4.12-5.22-10.2-7.44-13.5-2.22-3.3-6.92-8.94-10.44-12.54-3.52-3.59-10.22-8.89-14.9-11.77-4.68-2.89-10.3-5.73-12.5-6.32-2.2-0.59-4.34-1.25-4.75-1.47-0.41-0.22 0.33-1.86 1.65-3.65 1.33-1.79 3.97-5.95 5.87-9.25 1.91-3.3 4.01-7.8 4.68-10 0.66-2.2 0.98-4.45 0.71-5-0.28-0.55-0.57-0.77-0.66-0.5z"/>
	</g>
</svg>